<?xml version="1.0" encoding="UTF-8"?>
<svg width="24" height="24" viewBox="0 0 24 24" xmlns="http://www.w3.org/2000/svg">
  <path fill="#000000" d="M16.6 5.82s.51.5 0 0A4.278 4.278 0 015.9 5.82v4.576a4.278 4.278 0 008.5 0v2.164c2.137 0 3.875-1.739 3.875-3.876V0h3.75v8.75c0 3.934-3.189 7.125-7.125 7.125v-4.6c0 2.485-2.014 4.5-4.5 4.5s-4.5-2.015-4.5-4.5a4.5 4.5 0 018.2-2.615v-3.84c.718.404 1.547.635 2.428.635a4.277 4.277 0 004.272-4.18V5.82z"/>
  <path fill="#000000" d="M16.6 5.82s.51.5 0 0A4.278 4.278 0 015.9 5.82v4.576a4.278 4.278 0 008.5 0v2.164c2.137 0 3.875-1.739 3.875-3.876V0h3.75v8.75c0 3.934-3.189 7.125-7.125 7.125v-4.6c0 2.485-2.014 4.5-4.5 4.5s-4.5-2.015-4.5-4.5a4.5 4.5 0 018.2-2.615v-3.84c.718.404 1.547.635 2.428.635a4.277 4.277 0 004.272-4.18V5.82z"/>
</svg>
