<?xml version="1.0" encoding="UTF-8"?>
<svg width="159" height="110" xmlns="http://www.w3.org/2000/svg">
  <path d="M154.717 17.125c-1.82-6.835-7.17-12.216-13.945-14.05C128.558 0 79.025 0 79.025 0S29.492 0 17.277 3.075C10.503 4.91 5.152 10.29 3.332 17.125 0 35.288 0 66 0 66s0 30.712 3.332 48.875c1.82 6.835 7.17 12.216 13.945 14.05C29.492 132 79.025 132 79.025 132s49.533 0 61.747-3.075c6.775-1.834 12.125-7.215 13.945-14.05C158.05 96.712 158.05 66 158.05 66s0-30.712-3.333-48.875z" fill="red"/>
  <path d="M63.22 94.286L104.037 66 63.22 37.714z" fill="#fff"/>
</svg>
